<?xml version="1.0" encoding="UTF-8" standalone="no"?>
<!-- Created with Inkscape (http://www.inkscape.org/) -->

<svg
   width="100mm"
   height="100mm"
   viewBox="0 0 100 100"
   version="1.1"
   id="svg1"
   inkscape:version="1.3.2 (091e20e, 2023-11-25, custom)"
   sodipodi:docname="net.svg"
   xmlns:inkscape="http://www.inkscape.org/namespaces/inkscape"
   xmlns:sodipodi="http://sodipodi.sourceforge.net/DTD/sodipodi-0.dtd"
   xmlns="http://www.w3.org/2000/svg"
   xmlns:svg="http://www.w3.org/2000/svg">
  <sodipodi:namedview
     id="namedview1"
     pagecolor="#ffffff"
     bordercolor="#000000"
     borderopacity="0.25"
     inkscape:showpageshadow="2"
     inkscape:pageopacity="0.0"
     inkscape:pagecheckerboard="0"
     inkscape:deskcolor="#d1d1d1"
     inkscape:document-units="mm"
     showgrid="true"
     inkscape:zoom="1.4878904"
     inkscape:cx="203.30799"
     inkscape:cy="241.95331"
     inkscape:window-width="1278"
     inkscape:window-height="1368"
     inkscape:window-x="3833"
     inkscape:window-y="0"
     inkscape:window-maximized="0"
     inkscape:current-layer="g3">
    <inkscape:grid
       id="grid1"
       units="mm"
       originx="0"
       originy="0"
       spacingx="0.99999998"
       spacingy="1"
       empcolor="#0099e5"
       empopacity="0.30196078"
       color="#0099e5"
       opacity="0.14901961"
       empspacing="5"
       dotted="false"
       gridanglex="30"
       gridanglez="30"
       visible="true" />
  </sodipodi:namedview>
  <defs
     id="defs1" />
  <g
     inkscape:label="Calque 1"
     inkscape:groupmode="layer"
     id="layer1">
    <g
       id="g3"
       transform="matrix(1.610205,0,0,1.610205,-15.007894,-45.579375)">
      <rect
         style="fill:#ffffff;fill-opacity:1;stroke:none;stroke-width:0.971926;stroke-linecap:round;stroke-linejoin:round;stroke-dasharray:none;stroke-opacity:1"
         id="rect4"
         width="61.84412"
         height="61.84412"
         x="9.541358"
         y="28.306566" />
      <path
         style="fill:none;stroke:#fd0000;stroke-width:1.865;stroke-linecap:round;stroke-linejoin:round;stroke-dasharray:none;stroke-opacity:1"
         d="m 10.373624,74.941575 5.029636,-5.029637 5.061071,5.061072 4.998201,-4.998202 4.903894,4.903896 4.935331,-4.935331 5.092507,5.092507 4.998201,-4.998201 4.998199,4.998201 5.029636,-5.029636 4.966766,4.966766 4.935329,-4.935331 4.966766,4.966766"
         id="path2" />
      <path
         d="m 10.03639,64.452329 q 0,-1.284411 0.624849,-1.805118 0.624848,-0.520707 1.492693,-0.520707 0.867845,0 1.527407,0.520707 0.659562,0.520707 0.659562,1.805118 0,1.249696 -0.659562,1.805117 -0.659562,0.555421 -1.527407,0.555421 -0.867845,0 -1.492693,-0.555421 Q 10.03639,65.702025 10.03639,64.452329 Z M 28.747115,47.37314 q 3.332525,0 5.033501,1.631548 1.700976,1.631549 1.700976,5.20707 v 12.115116 h -3.0201 V 54.420041 q 0,-4.47808 -4.165656,-4.47808 -3.089528,0 -4.269797,1.73569 -1.180269,1.73569 -1.180269,4.998787 v 9.650436 H 19.790955 V 47.720278 h 2.46468 l 0.451279,2.534107 h 0.173569 q 0.902559,-1.457979 2.499394,-2.152255 1.596835,-0.72899 3.367238,-0.72899 z m 19.682725,0 q 2.360539,0 4.096229,1.041414 1.73569,1.041414 2.638248,2.950673 0.937273,1.874545 0.937273,4.408652 V 57.61371 H 43.361626 q 0.06943,3.158956 1.596835,4.825218 1.562121,1.631549 4.339224,1.631549 1.770404,0 3.124242,-0.312424 1.388552,-0.347138 2.846532,-0.971987 v 2.672963 q -1.423266,0.624848 -2.811818,0.902559 -1.388552,0.312424 -3.297811,0.312424 -2.672962,0 -4.686363,-1.076128 -2.0134,-1.076128 -3.158955,-3.193669 -1.110842,-2.117542 -1.110842,-5.241784 0,-3.054814 1.0067,-5.241784 1.041414,-2.186969 2.881246,-3.367238 1.874545,-1.180269 4.339224,-1.180269 z m -0.03471,2.499393 q -2.18697,0 -3.47138,1.423266 -1.249697,1.388552 -1.492694,3.887945 h 9.476867 q -0.03471,-2.360538 -1.110841,-3.818517 -1.076128,-1.492694 -3.401952,-1.492694 z m 18.641281,14.302085 q 0.694276,0 1.423266,-0.104141 0.72899,-0.104142 1.180269,-0.277711 v 2.325825 q -0.485993,0.242997 -1.388552,0.381852 -0.902559,0.173569 -1.73569,0.173569 -1.457979,0 -2.707676,-0.485993 -1.214983,-0.520707 -1.978687,-1.770404 -0.763703,-1.249697 -0.763703,-3.506094 V 50.080816 h -2.638249 v -1.457979 l 2.672963,-1.214983 1.214983,-3.957373 h 1.805117 v 4.269797 h 5.380639 v 2.360538 h -5.380639 v 10.761278 q 0,1.700976 0.798418,2.534107 0.833131,0.798417 2.117541,0.798417 z"
         id="text2"
         style="font-size:34.7138px;fill:#4327a7;stroke-width:17.1109;stroke-linecap:round;stroke-linejoin:round"
         aria-label=".net" />
    </g>
  </g>
</svg>
